<svg width="40" height="40" viewBox="0 0 40 40" fill="none" xmlns="http://www.w3.org/2000/svg">
<path d="M24.0256 19.5L13.5128 31.1542C13.1709 31.4252 13 31.7866 13 32.2383C13 32.69 13.1709 33.0966 13.5128 33.4579C13.8547 33.8193 14.2393 34 14.6667 34C15.094 34 15.4786 33.8193 15.8205 33.4579L27.7436 20.3131C27.9145 20.1324 28 19.8614 28 19.5C28 19.1386 27.9145 18.8676 27.7436 18.6869L15.8205 5.54206C15.4786 5.18069 15.094 5 14.6667 5C14.2393 5 13.8547 5.18069 13.5128 5.54206C13.1709 5.90343 13 6.30997 13 6.76168C13 7.2134 13.1709 7.57477 13.5128 7.84579L24.0256 19.5Z" fill="#496E75"/>
</svg>
